<svg width="170" height="55" viewBox="0 0 170 55" fill="none" xmlns="http://www.w3.org/2000/svg">
<path d="M60.5129 39.26C59.0396 39.26 57.7742 39.0087 56.7169 38.506C55.6769 38.0033 54.7322 37.2493 53.8829 36.244L56.2229 33.904C56.7602 34.6147 57.3842 35.1693 58.0949 35.568C58.8056 35.9493 59.6722 36.14 60.6949 36.14C61.6136 36.14 62.3416 35.958 62.8789 35.594C63.4336 35.23 63.7109 34.7273 63.7109 34.086C63.7109 33.5313 63.5549 33.0807 63.2429 32.734C62.9309 32.3873 62.5149 32.0927 61.9949 31.85C61.4922 31.6073 60.9289 31.3907 60.3049 31.2C59.6982 30.992 59.0829 30.758 58.4589 30.498C57.8522 30.238 57.2889 29.9173 56.7689 29.536C56.2662 29.1373 55.8589 28.6347 55.5469 28.028C55.2349 27.404 55.0789 26.624 55.0789 25.688C55.0789 24.5787 55.3476 23.634 55.8849 22.854C56.4222 22.074 57.1589 21.476 58.0949 21.06C59.0309 20.644 60.0882 20.436 61.2669 20.436C62.5149 20.436 63.6416 20.67 64.6469 21.138C65.6522 21.606 66.4756 22.2127 67.1169 22.958L64.7769 25.298C64.2396 24.7087 63.6849 24.2753 63.1129 23.998C62.5582 23.7207 61.9256 23.582 61.2149 23.582C60.4002 23.582 59.7589 23.738 59.2909 24.05C58.8229 24.362 58.5889 24.8127 58.5889 25.402C58.5889 25.9047 58.7449 26.312 59.0569 26.624C59.3689 26.936 59.7762 27.2047 60.2789 27.43C60.7989 27.6553 61.3622 27.872 61.9689 28.08C62.5929 28.288 63.2082 28.522 63.8149 28.782C64.4389 29.042 65.0022 29.38 65.5049 29.796C66.0249 30.212 66.4409 30.7493 66.7529 31.408C67.0649 32.0493 67.2209 32.8467 67.2209 33.8C67.2209 35.4987 66.6229 36.8333 65.4269 37.804C64.2309 38.7747 62.5929 39.26 60.5129 39.26ZM77.9156 39.26C77.0143 39.26 76.1996 39.078 75.4716 38.714C74.7436 38.3327 74.163 37.8213 73.7296 37.18C73.2963 36.5387 73.0623 35.802 73.0276 34.97V30.524C73.0623 29.692 73.2963 28.9553 73.7296 28.314C74.1803 27.6553 74.761 27.1353 75.4716 26.754C76.1996 26.3727 77.0143 26.182 77.9156 26.182C79.077 26.182 80.117 26.468 81.0356 27.04C81.9543 27.612 82.6736 28.392 83.1936 29.38C83.731 30.368 83.9996 31.486 83.9996 32.734C83.9996 33.9647 83.731 35.074 83.1936 36.062C82.6736 37.05 81.9543 37.83 81.0356 38.402C80.117 38.974 79.077 39.26 77.9156 39.26ZM70.9476 44.252V26.442H74.3536V29.744L73.7816 32.786L74.3276 35.828V44.252H70.9476ZM77.3176 36.114C77.9416 36.114 78.4963 35.9753 78.9816 35.698C79.467 35.4033 79.8396 35.0047 80.0996 34.502C80.377 33.982 80.5156 33.384 80.5156 32.708C80.5156 32.0493 80.377 31.4687 80.0996 30.966C79.8396 30.446 79.467 30.0473 78.9816 29.77C78.4963 29.4753 77.9416 29.328 77.3176 29.328C76.711 29.328 76.165 29.4753 75.6796 29.77C75.1943 30.0473 74.813 30.446 74.5356 30.966C74.2756 31.4687 74.1456 32.0493 74.1456 32.708C74.1456 33.384 74.2756 33.982 74.5356 34.502C74.813 35.0047 75.1856 35.4033 75.6536 35.698C76.139 35.9753 76.6936 36.114 77.3176 36.114ZM93.4348 39.26C92.1695 39.26 91.0255 38.974 90.0028 38.402C88.9975 37.8127 88.1915 37.024 87.5848 36.036C86.9955 35.0307 86.7008 33.9127 86.7008 32.682C86.7008 31.4513 86.9955 30.3507 87.5848 29.38C88.1741 28.392 88.9801 27.612 90.0028 27.04C91.0255 26.4507 92.1608 26.156 93.4088 26.156C94.6915 26.156 95.8355 26.4507 96.8408 27.04C97.8635 27.612 98.6695 28.392 99.2588 29.38C99.8481 30.3507 100.143 31.4513 100.143 32.682C100.143 33.9127 99.8481 35.0307 99.2588 36.036C98.6695 37.024 97.8635 37.8127 96.8408 38.402C95.8355 38.974 94.7001 39.26 93.4348 39.26ZM93.4088 36.088C94.0501 36.088 94.6135 35.9493 95.0988 35.672C95.6015 35.3773 95.9828 34.9787 96.2428 34.476C96.5201 33.956 96.6588 33.3667 96.6588 32.708C96.6588 32.0493 96.5201 31.4687 96.2428 30.966C95.9655 30.4633 95.5841 30.0733 95.0988 29.796C94.6135 29.5013 94.0501 29.354 93.4088 29.354C92.7848 29.354 92.2301 29.5013 91.7448 29.796C91.2595 30.0733 90.8781 30.4633 90.6008 30.966C90.3235 31.4687 90.1848 32.0493 90.1848 32.708C90.1848 33.3667 90.3235 33.956 90.6008 34.476C90.8781 34.9787 91.2595 35.3773 91.7448 35.672C92.2301 35.9493 92.7848 36.088 93.4088 36.088ZM105.482 39V21.216H108.888V39H105.482ZM102.544 29.432V26.442H119.6V29.432H102.544ZM113.256 39V21.216H116.662V39H113.256ZM128.537 39.26C127.22 39.26 126.05 38.9827 125.027 38.428C124.005 37.856 123.19 37.076 122.583 36.088C121.994 35.1 121.699 33.9733 121.699 32.708C121.699 31.46 121.985 30.3507 122.557 29.38C123.147 28.392 123.944 27.612 124.949 27.04C125.955 26.4507 127.073 26.156 128.303 26.156C129.517 26.156 130.583 26.4333 131.501 26.988C132.437 27.5253 133.165 28.2707 133.685 29.224C134.223 30.16 134.491 31.226 134.491 32.422C134.491 32.6473 134.474 32.8813 134.439 33.124C134.422 33.3493 134.379 33.6093 134.309 33.904L123.753 33.93V31.382L132.723 31.356L131.345 32.422C131.311 31.6767 131.172 31.0527 130.929 30.55C130.704 30.0473 130.366 29.666 129.915 29.406C129.482 29.1287 128.945 28.99 128.303 28.99C127.627 28.99 127.038 29.146 126.535 29.458C126.033 29.7527 125.643 30.1773 125.365 30.732C125.105 31.2693 124.975 31.9107 124.975 32.656C124.975 33.4187 125.114 34.086 125.391 34.658C125.686 35.2127 126.102 35.646 126.639 35.958C127.177 36.2527 127.801 36.4 128.511 36.4C129.153 36.4 129.733 36.296 130.253 36.088C130.773 35.8627 131.224 35.5333 131.605 35.1L133.607 37.102C133.001 37.8127 132.255 38.35 131.371 38.714C130.505 39.078 129.56 39.26 128.537 39.26ZM137.898 39V26.442H141.304V39H137.898ZM141.304 32.058L139.978 31.174C140.134 29.6313 140.584 28.418 141.33 27.534C142.075 26.6327 143.15 26.182 144.554 26.182C145.16 26.182 145.706 26.286 146.192 26.494C146.677 26.6847 147.119 27.0053 147.518 27.456L145.386 29.9C145.195 29.692 144.961 29.536 144.684 29.432C144.424 29.328 144.12 29.276 143.774 29.276C143.046 29.276 142.448 29.51 141.98 29.978C141.529 30.4287 141.304 31.122 141.304 32.058Z" fill="#D9D9D9"/>
<rect x="17" y="6" width="16.3636" height="42" rx="8.18182" fill="#D9D9D9"/>
<circle cx="25.1821" cy="16.9091" r="5.45455" fill="#1F2023"/>
<circle cx="25.4545" cy="38.4545" r="5.45455" fill="#1F2023"/>
<circle cx="25.5" cy="36.5" r="6.5" fill="#D9D9D9"/>
<circle cx="28" cy="20" r="2" fill="white"/>
<circle cx="25.1821" cy="16.9091" r="5.45455" fill="#1F2023"/>
<circle cx="28" cy="20" r="2" fill="white"/>
</svg>
