<svg width="24" height="24" viewBox="0 0 24 24" fill="none" xmlns="http://www.w3.org/2000/svg">
<path fill-rule="evenodd" clip-rule="evenodd" d="M2 15.7462L2 8.25324C2 4.39224 4.393 2.00024 8.256 2.00024H15.756C19.608 2.00024 22 4.39224 22 8.25324V15.7562C22 19.6082 19.608 22.0002 15.753 21.9992C15.331 21.9992 14.988 21.6562 14.988 21.2342C14.988 20.8112 15.331 20.4692 15.753 20.4692C18.787 20.4692 20.467 18.7982 20.467 15.7462V8.25324C20.467 5.21024 18.796 3.53024 15.753 3.53024H8.253C5.21 3.53024 3.53 5.20024 3.53 8.25324L3.53 15.7472C3.53 18.7902 5.21 20.4702 8.253 20.4702H10.566H10.584C11.002 20.4702 11.34 20.8082 11.34 21.2262V21.2352V21.2372C11.34 21.6592 10.997 22.0012 10.575 22.0002H8.253C4.393 22.0002 2 19.5902 2 15.7462ZM10.804 16.4795C10.804 15.8185 11.341 15.2815 12 15.2815C12.66 15.2815 13.197 15.8185 13.197 16.4795C13.197 17.1395 12.66 17.6775 12 17.6775C11.341 17.6775 10.804 17.1395 10.804 16.4795ZM10.804 12C10.804 11.339 11.341 10.802 12 10.802C12.66 10.802 13.197 11.339 13.197 12C13.197 12.66 12.66 13.198 12 13.198C11.341 13.198 10.804 12.66 10.804 12ZM12 6.32304C11.341 6.32304 10.804 6.86004 10.804 7.52104C10.804 8.18104 11.341 8.71904 12 8.71904C12.66 8.71904 13.197 8.18104 13.197 7.52104C13.197 6.86004 12.66 6.32304 12 6.32304Z" fill="white"/>
</svg>
